<mxfile host="app.diagrams.net" agent="Mozilla/5.0 (X11; Ubuntu; Linux x86_64; rv:138.0) Gecko/20100101 Firefox/138.0" version="27.0.9">
  <diagram name="Page-1" id="DAvheAuIhUx4NKI8dkFm">
    <mxGraphModel dx="998" dy="412" grid="1" gridSize="10" guides="1" tooltips="1" connect="1" arrows="1" fold="1" page="1" pageScale="1" pageWidth="500" pageHeight="150" math="1" shadow="0">
      <root>
        <mxCell id="0" />
        <mxCell id="1" parent="0" />
        <mxCell id="47gibG_9NsAA-7ctbUeO-4" value="" style="edgeStyle=orthogonalEdgeStyle;rounded=0;orthogonalLoop=1;jettySize=auto;html=1;endArrow=block;endFill=1;strokeWidth=2;strokeColor=#000000;" parent="1" source="47gibG_9NsAA-7ctbUeO-1" target="47gibG_9NsAA-7ctbUeO-3" edge="1">
          <mxGeometry relative="1" as="geometry" />
        </mxCell>
        <mxCell id="47gibG_9NsAA-7ctbUeO-7" value="" style="edgeStyle=orthogonalEdgeStyle;rounded=0;orthogonalLoop=1;jettySize=auto;html=1;strokeColor=#000000;strokeWidth=2;endArrow=block;endFill=1;" parent="1" source="47gibG_9NsAA-7ctbUeO-3" target="47gibG_9NsAA-7ctbUeO-5" edge="1">
          <mxGeometry relative="1" as="geometry" />
        </mxCell>
        <mxCell id="47gibG_9NsAA-7ctbUeO-8" value="" style="edgeStyle=orthogonalEdgeStyle;rounded=0;orthogonalLoop=1;jettySize=auto;html=1;strokeWidth=2;strokeColor=#000000;endArrow=block;endFill=1;" parent="1" source="47gibG_9NsAA-7ctbUeO-5" target="47gibG_9NsAA-7ctbUeO-6" edge="1">
          <mxGeometry relative="1" as="geometry" />
        </mxCell>
        <mxCell id="47gibG_9NsAA-7ctbUeO-15" value="" style="edgeStyle=orthogonalEdgeStyle;rounded=0;orthogonalLoop=1;jettySize=auto;html=1;strokeColor=#000000;strokeWidth=2;endArrow=block;endFill=1;" parent="1" source="47gibG_9NsAA-7ctbUeO-6" target="47gibG_9NsAA-7ctbUeO-9" edge="1">
          <mxGeometry relative="1" as="geometry" />
        </mxCell>
        <mxCell id="47gibG_9NsAA-7ctbUeO-17" value="" style="edgeStyle=orthogonalEdgeStyle;rounded=0;orthogonalLoop=1;jettySize=auto;html=1;strokeWidth=2;endArrow=block;endFill=1;strokeColor=#000000;" parent="1" source="47gibG_9NsAA-7ctbUeO-9" target="47gibG_9NsAA-7ctbUeO-16" edge="1">
          <mxGeometry relative="1" as="geometry" />
        </mxCell>
        <mxCell id="47gibG_9NsAA-7ctbUeO-28" value="" style="edgeStyle=orthogonalEdgeStyle;rounded=0;orthogonalLoop=1;jettySize=auto;html=1;strokeWidth=2;endArrow=block;endFill=1;strokeColor=#000000;" parent="1" source="47gibG_9NsAA-7ctbUeO-22" target="47gibG_9NsAA-7ctbUeO-5" edge="1">
          <mxGeometry relative="1" as="geometry" />
        </mxCell>
        <mxCell id="47gibG_9NsAA-7ctbUeO-30" value="" style="edgeStyle=orthogonalEdgeStyle;rounded=0;orthogonalLoop=1;jettySize=auto;html=1;strokeWidth=2;endArrow=block;endFill=1;strokeColor=#000000;" parent="1" source="47gibG_9NsAA-7ctbUeO-23" target="47gibG_9NsAA-7ctbUeO-6" edge="1">
          <mxGeometry relative="1" as="geometry" />
        </mxCell>
        <mxCell id="47gibG_9NsAA-7ctbUeO-31" value="" style="endArrow=block;html=1;rounded=1;exitX=1;exitY=0.5;exitDx=0;exitDy=0;strokeWidth=2;endFill=1;strokeColor=#000000;curved=0;" parent="1" source="47gibG_9NsAA-7ctbUeO-18" edge="1">
          <mxGeometry width="50" height="50" relative="1" as="geometry">
            <mxPoint x="480" y="280" as="sourcePoint" />
            <mxPoint x="190" y="-20" as="targetPoint" />
            <Array as="points">
              <mxPoint x="500" y="300" />
              <mxPoint x="500" y="-20" />
            </Array>
          </mxGeometry>
        </mxCell>
        <mxCell id="47gibG_9NsAA-7ctbUeO-32" value="" style="endArrow=block;html=1;rounded=1;exitX=0.5;exitY=1;exitDx=0;exitDy=0;entryX=0;entryY=0.5;entryDx=0;entryDy=0;strokeWidth=2;endFill=1;strokeColor=#000000;curved=0;" parent="1" source="47gibG_9NsAA-7ctbUeO-3" target="47gibG_9NsAA-7ctbUeO-21" edge="1">
          <mxGeometry width="50" height="50" relative="1" as="geometry">
            <mxPoint x="40" y="40" as="sourcePoint" />
            <mxPoint x="90" y="-10" as="targetPoint" />
            <Array as="points">
              <mxPoint x="190" y="60" />
            </Array>
          </mxGeometry>
        </mxCell>
        <mxCell id="47gibG_9NsAA-7ctbUeO-33" value="" style="endArrow=block;html=1;rounded=1;exitX=0.5;exitY=1;exitDx=0;exitDy=0;entryX=0;entryY=0.5;entryDx=0;entryDy=0;strokeWidth=2;endFill=1;strokeColor=#000000;curved=0;" parent="1" source="47gibG_9NsAA-7ctbUeO-5" target="47gibG_9NsAA-7ctbUeO-20" edge="1">
          <mxGeometry width="50" height="50" relative="1" as="geometry">
            <mxPoint x="330" y="170" as="sourcePoint" />
            <mxPoint x="380" y="120" as="targetPoint" />
            <Array as="points">
              <mxPoint x="190" y="140" />
            </Array>
          </mxGeometry>
        </mxCell>
        <mxCell id="47gibG_9NsAA-7ctbUeO-34" value="" style="endArrow=block;html=1;rounded=1;entryX=0;entryY=0.5;entryDx=0;entryDy=0;strokeColor=#000000;strokeWidth=2;endFill=1;curved=0;" parent="1" target="47gibG_9NsAA-7ctbUeO-19" edge="1">
          <mxGeometry width="50" height="50" relative="1" as="geometry">
            <mxPoint x="190" y="210" as="sourcePoint" />
            <mxPoint x="330" y="170" as="targetPoint" />
            <Array as="points">
              <mxPoint x="190" y="220" />
            </Array>
          </mxGeometry>
        </mxCell>
        <mxCell id="47gibG_9NsAA-7ctbUeO-38" value="" style="endArrow=block;html=1;rounded=1;exitX=0.5;exitY=1;exitDx=0;exitDy=0;entryX=0;entryY=0.5;entryDx=0;entryDy=0;strokeWidth=2;endFill=1;strokeColor=#000000;curved=0;" parent="1" source="47gibG_9NsAA-7ctbUeO-13" target="47gibG_9NsAA-7ctbUeO-18" edge="1">
          <mxGeometry width="50" height="50" relative="1" as="geometry">
            <mxPoint x="340" y="400" as="sourcePoint" />
            <mxPoint x="390" y="350" as="targetPoint" />
            <Array as="points">
              <mxPoint x="190" y="300" />
            </Array>
          </mxGeometry>
        </mxCell>
        <mxCell id="47gibG_9NsAA-7ctbUeO-39" value="" style="endArrow=none;html=1;rounded=1;exitX=1;exitY=0.5;exitDx=0;exitDy=0;curved=0;strokeColor=#000000;strokeWidth=2;" parent="1" source="47gibG_9NsAA-7ctbUeO-19" edge="1">
          <mxGeometry width="50" height="50" relative="1" as="geometry">
            <mxPoint x="520" y="220" as="sourcePoint" />
            <mxPoint x="500" y="180" as="targetPoint" />
            <Array as="points">
              <mxPoint x="500" y="220" />
            </Array>
          </mxGeometry>
        </mxCell>
        <mxCell id="47gibG_9NsAA-7ctbUeO-40" value="" style="endArrow=none;html=1;rounded=1;exitX=1;exitY=0.5;exitDx=0;exitDy=0;strokeColor=#000000;strokeWidth=2;curved=0;" parent="1" source="47gibG_9NsAA-7ctbUeO-20" edge="1">
          <mxGeometry width="50" height="50" relative="1" as="geometry">
            <mxPoint x="510" y="160" as="sourcePoint" />
            <mxPoint x="500" y="100" as="targetPoint" />
            <Array as="points">
              <mxPoint x="500" y="140" />
            </Array>
          </mxGeometry>
        </mxCell>
        <mxCell id="47gibG_9NsAA-7ctbUeO-41" value="" style="endArrow=none;html=1;rounded=1;exitX=1;exitY=0.5;exitDx=0;exitDy=0;strokeWidth=2;strokeColor=#000000;curved=0;" parent="1" source="47gibG_9NsAA-7ctbUeO-21" edge="1">
          <mxGeometry width="50" height="50" relative="1" as="geometry">
            <mxPoint x="510" y="110" as="sourcePoint" />
            <mxPoint x="500" y="20" as="targetPoint" />
            <Array as="points">
              <mxPoint x="500" y="60" />
            </Array>
          </mxGeometry>
        </mxCell>
        <mxCell id="47gibG_9NsAA-7ctbUeO-1" value="&lt;b&gt;&lt;font face=&quot;Courier New&quot;&gt;Diseño&lt;/font&gt;&lt;/b&gt;" style="rounded=1;whiteSpace=wrap;html=1;fillColor=#ACACAC;strokeWidth=2;" parent="1" vertex="1">
          <mxGeometry x="120" y="-80" width="140" height="40" as="geometry" />
        </mxCell>
        <mxCell id="47gibG_9NsAA-7ctbUeO-3" value="&lt;b&gt;&lt;font face=&quot;Courier New&quot;&gt;Representación&lt;/font&gt;&lt;/b&gt;" style="rounded=1;whiteSpace=wrap;html=1;fillColor=#E1DFD2;strokeWidth=2;" parent="1" vertex="1">
          <mxGeometry x="120" width="140" height="40" as="geometry" />
        </mxCell>
        <mxCell id="47gibG_9NsAA-7ctbUeO-5" value="&lt;font face=&quot;Courier New&quot;&gt;&lt;b&gt;Síntesis&lt;/b&gt;&lt;/font&gt;" style="rounded=1;whiteSpace=wrap;html=1;fillColor=#E1DFD2;strokeWidth=2;" parent="1" vertex="1">
          <mxGeometry x="120" y="80" width="140" height="40" as="geometry" />
        </mxCell>
        <mxCell id="47gibG_9NsAA-7ctbUeO-6" value="&lt;div&gt;&lt;br&gt;&lt;/div&gt;" style="rounded=1;whiteSpace=wrap;html=1;fillColor=#E1DFD2;strokeWidth=2;" parent="1" vertex="1">
          <mxGeometry x="120" y="160" width="140" height="40" as="geometry" />
        </mxCell>
        <mxCell id="47gibG_9NsAA-7ctbUeO-9" value="" style="rounded=1;whiteSpace=wrap;html=1;fillColor=#E1DFD2;strokeWidth=2;" parent="1" vertex="1">
          <mxGeometry x="120" y="240" width="140" height="40" as="geometry" />
        </mxCell>
        <mxCell id="47gibG_9NsAA-7ctbUeO-10" value="&lt;font face=&quot;Courier New&quot;&gt;&lt;b&gt;Map&lt;/b&gt;&lt;/font&gt;" style="text;html=1;align=center;verticalAlign=middle;whiteSpace=wrap;rounded=0;" parent="1" vertex="1">
          <mxGeometry x="160" y="155.5" width="60" height="30" as="geometry" />
        </mxCell>
        <mxCell id="47gibG_9NsAA-7ctbUeO-11" value="&lt;b&gt;&lt;font face=&quot;Courier New&quot;&gt;Place and Route&lt;/font&gt;&lt;/b&gt;" style="text;html=1;align=center;verticalAlign=middle;whiteSpace=wrap;rounded=0;" parent="1" vertex="1">
          <mxGeometry x="140" y="173" width="110" height="30" as="geometry" />
        </mxCell>
        <mxCell id="47gibG_9NsAA-7ctbUeO-12" value="&lt;font face=&quot;Courier New&quot;&gt;&lt;b&gt;Generación de archivo&lt;/b&gt;&lt;/font&gt;" style="text;html=1;align=center;verticalAlign=middle;whiteSpace=wrap;rounded=0;" parent="1" vertex="1">
          <mxGeometry x="112.5" y="240" width="147.5" height="30" as="geometry" />
        </mxCell>
        <mxCell id="47gibG_9NsAA-7ctbUeO-13" value="&lt;font face=&quot;Courier New&quot;&gt;&lt;b&gt;de configuración&lt;/b&gt;&lt;/font&gt;" style="text;html=1;align=center;verticalAlign=middle;whiteSpace=wrap;rounded=0;" parent="1" vertex="1">
          <mxGeometry x="121.5" y="260" width="135" height="30" as="geometry" />
        </mxCell>
        <mxCell id="47gibG_9NsAA-7ctbUeO-16" value="&lt;b&gt;&lt;font face=&quot;Courier New&quot;&gt;Implementación&lt;/font&gt;&lt;/b&gt;" style="rounded=1;whiteSpace=wrap;html=1;fillColor=#ACACAC;strokeWidth=2;" parent="1" vertex="1">
          <mxGeometry x="120" y="320" width="140" height="40" as="geometry" />
        </mxCell>
        <mxCell id="47gibG_9NsAA-7ctbUeO-18" value="&lt;div&gt;&lt;br&gt;&lt;/div&gt;" style="rounded=1;whiteSpace=wrap;html=1;fillColor=#E1DFD2;strokeWidth=2;" parent="1" vertex="1">
          <mxGeometry x="310" y="280" width="140" height="40" as="geometry" />
        </mxCell>
        <mxCell id="47gibG_9NsAA-7ctbUeO-19" value="&lt;div&gt;&lt;br&gt;&lt;/div&gt;" style="rounded=1;whiteSpace=wrap;html=1;fillColor=#E1DFD2;strokeWidth=2;" parent="1" vertex="1">
          <mxGeometry x="310" y="200" width="140" height="40" as="geometry" />
        </mxCell>
        <mxCell id="47gibG_9NsAA-7ctbUeO-20" value="&lt;div&gt;&lt;br&gt;&lt;/div&gt;" style="rounded=1;whiteSpace=wrap;html=1;fillColor=#E1DFD2;strokeWidth=2;" parent="1" vertex="1">
          <mxGeometry x="310" y="120" width="140" height="40" as="geometry" />
        </mxCell>
        <mxCell id="47gibG_9NsAA-7ctbUeO-21" value="&lt;div&gt;&lt;br&gt;&lt;/div&gt;" style="rounded=1;whiteSpace=wrap;html=1;fillColor=#E1DFD2;strokeWidth=2;" parent="1" vertex="1">
          <mxGeometry x="310" y="40" width="140" height="40" as="geometry" />
        </mxCell>
        <mxCell id="47gibG_9NsAA-7ctbUeO-22" value="" style="rounded=1;whiteSpace=wrap;html=1;fillColor=#ACACAC;strokeWidth=2;" parent="1" vertex="1">
          <mxGeometry x="-70" y="80" width="140" height="40" as="geometry" />
        </mxCell>
        <mxCell id="47gibG_9NsAA-7ctbUeO-23" value="" style="rounded=1;whiteSpace=wrap;html=1;fillColor=#ACACAC;strokeWidth=2;" parent="1" vertex="1">
          <mxGeometry x="-70" y="160" width="140" height="40" as="geometry" />
        </mxCell>
        <mxCell id="47gibG_9NsAA-7ctbUeO-24" value="&lt;font face=&quot;Courier New&quot;&gt;&lt;b&gt;Restricciones de&lt;/b&gt;&lt;/font&gt;" style="text;html=1;align=center;verticalAlign=middle;whiteSpace=wrap;rounded=0;" parent="1" vertex="1">
          <mxGeometry x="-65" y="79" width="130" height="30" as="geometry" />
        </mxCell>
        <mxCell id="47gibG_9NsAA-7ctbUeO-25" value="&lt;font face=&quot;Courier New&quot;&gt;&lt;b&gt;Restricciones de&lt;/b&gt;&lt;/font&gt;" style="text;html=1;align=center;verticalAlign=middle;whiteSpace=wrap;rounded=0;" parent="1" vertex="1">
          <mxGeometry x="-60" y="157.5" width="120" height="30" as="geometry" />
        </mxCell>
        <mxCell id="47gibG_9NsAA-7ctbUeO-26" value="&lt;b&gt;&lt;font face=&quot;Courier New&quot;&gt;síntesis&lt;/font&gt;&lt;/b&gt;" style="text;html=1;align=center;verticalAlign=middle;whiteSpace=wrap;rounded=0;" parent="1" vertex="1">
          <mxGeometry x="-30" y="93" width="60" height="30" as="geometry" />
        </mxCell>
        <mxCell id="47gibG_9NsAA-7ctbUeO-27" value="&lt;font face=&quot;Courier New&quot;&gt;&lt;b&gt;implementación&lt;/b&gt;&lt;/font&gt;" style="text;html=1;align=center;verticalAlign=middle;whiteSpace=wrap;rounded=0;" parent="1" vertex="1">
          <mxGeometry x="-30" y="172" width="60" height="30" as="geometry" />
        </mxCell>
        <mxCell id="47gibG_9NsAA-7ctbUeO-42" value="&lt;font face=&quot;Courier New&quot;&gt;&lt;b&gt;Simulación comporta&lt;/b&gt;&lt;/font&gt;" style="text;html=1;align=center;verticalAlign=middle;whiteSpace=wrap;rounded=0;" parent="1" vertex="1">
          <mxGeometry x="310" y="40" width="140" height="30" as="geometry" />
        </mxCell>
        <mxCell id="47gibG_9NsAA-7ctbUeO-43" value="&lt;font face=&quot;Courier New&quot;&gt;&lt;b&gt;mental y funcional&lt;/b&gt;&lt;/font&gt;" style="text;html=1;align=center;verticalAlign=middle;whiteSpace=wrap;rounded=0;" parent="1" vertex="1">
          <mxGeometry x="296" y="52" width="170" height="30" as="geometry" />
        </mxCell>
        <mxCell id="47gibG_9NsAA-7ctbUeO-44" value="&lt;font face=&quot;Courier New&quot;&gt;&lt;b&gt;Simulación&lt;/b&gt;&lt;/font&gt;" style="text;html=1;align=center;verticalAlign=middle;whiteSpace=wrap;rounded=0;" parent="1" vertex="1">
          <mxGeometry x="350" y="119" width="60" height="30" as="geometry" />
        </mxCell>
        <mxCell id="47gibG_9NsAA-7ctbUeO-45" value="&lt;font face=&quot;Courier New&quot;&gt;&lt;b&gt;nivel de compuertas&lt;/b&gt;&lt;/font&gt;" style="text;html=1;align=center;verticalAlign=middle;whiteSpace=wrap;rounded=0;" parent="1" vertex="1">
          <mxGeometry x="305" y="130" width="150" height="30" as="geometry" />
        </mxCell>
        <mxCell id="47gibG_9NsAA-7ctbUeO-46" value="&lt;font face=&quot;Courier New&quot;&gt;&lt;b&gt;Simulación de&lt;/b&gt;&lt;/font&gt;" style="text;html=1;align=center;verticalAlign=middle;whiteSpace=wrap;rounded=0;" parent="1" vertex="1">
          <mxGeometry x="326" y="200" width="110" height="30" as="geometry" />
        </mxCell>
        <mxCell id="47gibG_9NsAA-7ctbUeO-47" value="&lt;font face=&quot;Courier New&quot;&gt;&lt;b&gt;timing&lt;/b&gt;&lt;/font&gt;" style="text;html=1;align=center;verticalAlign=middle;whiteSpace=wrap;rounded=0;" parent="1" vertex="1">
          <mxGeometry x="350" y="212" width="60" height="30" as="geometry" />
        </mxCell>
        <mxCell id="47gibG_9NsAA-7ctbUeO-48" value="&lt;font face=&quot;Courier New&quot;&gt;&lt;b&gt;Verificación de&lt;/b&gt;&lt;/font&gt;" style="text;html=1;align=center;verticalAlign=middle;whiteSpace=wrap;rounded=0;" parent="1" vertex="1">
          <mxGeometry x="321" y="280" width="120" height="30" as="geometry" />
        </mxCell>
        <mxCell id="47gibG_9NsAA-7ctbUeO-49" value="&lt;font face=&quot;Courier New&quot;&gt;&lt;b&gt;sistema&lt;/b&gt;&lt;/font&gt;" style="text;html=1;align=center;verticalAlign=middle;whiteSpace=wrap;rounded=0;" parent="1" vertex="1">
          <mxGeometry x="350" y="292" width="60" height="30" as="geometry" />
        </mxCell>
      </root>
    </mxGraphModel>
  </diagram>
</mxfile>
